<?xml version="1.0" encoding="UTF-8" standalone="no"?>
<svg
   xmlns:dc="http://purl.org/dc/elements/1.1/"
   xmlns:cc="http://creativecommons.org/ns#"
   xmlns:rdf="http://www.w3.org/1999/02/22-rdf-syntax-ns#"
   xmlns:svg="http://www.w3.org/2000/svg"
   xmlns="http://www.w3.org/2000/svg"
   xmlns:sodipodi="http://sodipodi.sourceforge.net/DTD/sodipodi-0.dtd"
   xmlns:inkscape="http://www.inkscape.org/namespaces/inkscape"
   version="1.1"
   x="0px"
   y="0px"
   viewBox="0 0 100 125"
   enable-background="new 0 0 100 100"
   xml:space="preserve"
   id="svg2"
   inkscape:version="0.48.4 r9939"
   width="100%"
   height="100%"
   sodipodi:docname="noun_66961_cc.svg"><metadata
     id="metadata132"><rdf:RDF><cc:Work
         rdf:about=""><dc:format>image/svg+xml</dc:format><dc:type
           rdf:resource="http://purl.org/dc/dcmitype/StillImage" /><dc:title></dc:title></cc:Work></rdf:RDF></metadata><defs
     id="defs130" /><sodipodi:namedview
     pagecolor="#ffffff"
     bordercolor="#666666"
     borderopacity="1"
     objecttolerance="10"
     gridtolerance="10"
     guidetolerance="10"
     inkscape:pageopacity="0"
     inkscape:pageshadow="2"
     inkscape:window-width="1920"
     inkscape:window-height="1056"
     id="namedview128"
     showgrid="false"
     showguides="true"
     inkscape:guide-bbox="true"
     inkscape:zoom="5.3400704"
     inkscape:cx="81.128416"
     inkscape:cy="33.264686"
     inkscape:window-x="0"
     inkscape:window-y="24"
     inkscape:window-maximized="1"
     inkscape:current-layer="g30"><sodipodi:guide
       orientation="0,1"
       position="49.142611,117.52681"
       id="guide3109" /><sodipodi:guide
       orientation="1,0"
       position="16.496739,113.10127"
       id="guide3111" /><sodipodi:guide
       orientation="0,1"
       position="81.588344,32.478504"
       id="guide3113" /><sodipodi:guide
       orientation="1,0"
       position="83.49609,110.32158"
       id="guide3115" /></sodipodi:namedview><g
     display="none"
     id="g4"><g
       display="inline"
       id="g6"><g
         id="g8"><path
           d="M29.634,62.419c-0.025,0-0.085-0.001-0.111-0.003l-0.64,0.002c-1.698,0-3.078-1.381-3.078-3.079V34.357     c0-1.698,1.38-3.079,3.078-3.079h35.001c1.694,0,3.073,1.453,3.073,3.151v24.909c0,1.698-1.379,3.079-3.076,3.079H48.132     c-0.813-0.014-2.414-0.516-2.777-2.331c-0.795-2.949-3.543-5.059-6.667-5.059c-3.197,0-6.034,2.266-6.744,5.386     C31.776,61.767,30.659,62.419,29.634,62.419z M28.881,33.621c-0.444,0-0.807,0.29-0.807,0.736v24.981     c0,0.446,0.363,0.809,0.809,0.809l0.748,0.001c0.004-0.036,0.092-0.203,0.099-0.237c0.944-4.144,4.711-7.151,8.958-7.151     c4.149,0,7.799,2.8,8.876,6.809c0.112,0.547,0.508,0.579,0.586,0.579h15.73c0.444,0,0.807-0.362,0.807-0.809V34.43     c0-0.446-0.362-0.809-0.807-0.809H28.881z"
           id="path10" /></g></g><g
       display="inline"
       id="g12"><circle
         cx="38.688"
         cy="61.952"
         r="4.909"
         id="circle14" /></g><g
       display="inline"
       id="g16"><circle
         cx="79.069"
         cy="61.952"
         r="4.908"
         id="circle18" /></g><g
       display="inline"
       id="g20"><path
         d="M89.09,48.85c0,0-0.07-1.559-0.215-2.324c-0.121-0.65-0.81-1.97-0.81-1.97L82.627,34.43    c-0.71-1.133-2.322-2.017-3.396-2.017H71.1c-1.072,0-1.943,0.87-1.943,1.944v24.981c0,1.074,0.871,1.945,1.943,1.945h0.479    c0,0,0.706-0.092,0.971-0.977c0.734-2.93,3.363-5.113,6.519-5.113c3.088,0,5.672,2.091,6.469,4.927    c0.33,1.201,1.662,1.163,1.662,1.163c1.074,0,1.943-0.871,1.943-1.945L89.09,48.85z M83.547,45.591h-8.516    c-0.718,0-1.303-0.588-1.303-1.302v-6.665c0-0.718,0.585-1.302,1.303-1.302h2.856c1.626,0,2.694,1.315,3.031,1.948l3.314,6.174    C84.572,45.074,84.265,45.591,83.547,45.591z"
         id="path22" /></g><path
       display="inline"
       d="M18.542,35.289h-8.531c-0.548,0-0.993-0.444-0.993-0.993c0-0.548,0.445-0.993,0.993-0.993h8.531   c0.548,0,0.993,0.445,0.993,0.993C19.535,34.845,19.09,35.289,18.542,35.289z"
       id="path24" /><path
       display="inline"
       d="M20.98,41.383h-5.282c-0.549,0-0.993-0.444-0.993-0.993c0-0.548,0.444-0.993,0.993-0.993h5.282   c0.548,0,0.993,0.445,0.993,0.993C21.974,40.938,21.529,41.383,20.98,41.383z"
       id="path26" /><path
       display="inline"
       d="M89.99,68.722H13.337c-0.548,0-0.993-0.444-0.993-0.994c0-0.549,0.445-0.994,0.993-0.994H89.99   c0.548,0,0.992,0.445,0.992,0.994C90.982,68.277,90.538,68.722,89.99,68.722z"
       id="path28" /></g><g
     id="g30"><g
       id="g32"><g
         id="g34"><path
           d="M79.672,92.522H20.328c-2.11,0-3.827-1.717-3.827-3.827V11.307c0-2.111,1.717-3.829,3.827-3.829h59.344     c2.11,0,3.827,1.718,3.827,3.829v77.389C83.499,90.806,81.782,92.522,79.672,92.522z M20.328,10.478     c-0.456,0-0.827,0.372-0.827,0.829v77.389c0,0.456,0.371,0.827,0.827,0.827h59.344c0.456,0,0.827-0.371,0.827-0.827V11.307     c0-0.457-0.371-0.829-0.827-0.829H20.328z"
           id="path36" /></g><g
         id="g38"><g
           id="g40"><path
             d="M45.694,29.862H32.29c-0.702,0-1.271-0.568-1.271-1.272c0-0.697,0.568-1.27,1.271-1.27h13.404      c0.699,0,1.269,0.572,1.269,1.27C46.963,29.294,46.394,29.862,45.694,29.862z"
             id="path42" /></g></g><g
         id="g44"><g
           id="g46"><path
             d="M67.711,40.024H32.29c-0.702,0-1.271-0.569-1.271-1.27c0-0.702,0.568-1.27,1.271-1.27h35.421      c0.701,0,1.268,0.567,1.268,1.27C68.979,39.455,68.412,40.024,67.711,40.024z"
             id="path48" /></g></g><g
         id="g50"><g
           id="g52"><path
             d="M67.711,48.493H32.29c-0.702,0-1.271-0.569-1.271-1.27c0-0.703,0.568-1.271,1.271-1.271h35.421      c0.701,0,1.268,0.568,1.268,1.271C68.979,47.924,68.412,48.493,67.711,48.493z"
             id="path54" /></g></g><g
         id="g56"><g
           id="g58"><path
             d="M67.711,56.964H32.29c-0.702,0-1.271-0.571-1.271-1.272c0-0.705,0.568-1.271,1.271-1.271h35.421      c0.701,0,1.268,0.566,1.268,1.271C68.979,56.393,68.412,56.964,67.711,56.964z"
             id="path60" /></g></g><g
         id="g62"><g
           id="g64"><path
             d="M67.711,65.432H32.29c-0.702,0-1.271-0.571-1.271-1.271s0.568-1.271,1.271-1.271h35.421      c0.701,0,1.268,0.571,1.268,1.271S68.412,65.432,67.711,65.432z"
             id="path66" /></g></g></g><g
       display="none"
       id="g68"><g
         display="inline"
         id="g70"><path
           d="M79.673,92.522H20.329c-2.111,0-3.829-1.717-3.829-3.827V11.307c0-2.111,1.718-3.829,3.829-3.829h59.344     c2.11,0,3.827,1.718,3.827,3.829v77.389C83.5,90.806,81.783,92.522,79.673,92.522z M20.329,10.478     c-0.457,0-0.829,0.372-0.829,0.829v77.389c0,0.456,0.372,0.827,0.829,0.827h59.344c0.456,0,0.827-0.371,0.827-0.827V11.307     c0-0.457-0.371-0.829-0.827-0.829H20.329z"
           id="path72" /></g><g
         display="inline"
         id="g74"><g
           id="g76"><path
             d="M36.572,49.071c-0.293,0-0.586-0.108-0.81-0.334c-0.444-0.447-0.444-1.171,0-1.618l7.495-7.491      c0.45-0.444,1.17-0.444,1.619,0l5.302,5.301l12.335-11.984c0.455-0.436,1.179-0.429,1.62,0.023      c0.438,0.451,0.429,1.18-0.023,1.619L50.963,47.353c-0.451,0.438-1.165,0.434-1.608-0.012l-5.29-5.289l-6.683,6.686      C37.156,48.963,36.864,49.071,36.572,49.071z"
             id="path78" /></g></g><g
         display="inline"
         id="g80"><g
           id="g82"><path
             d="M64.496,41.479c-0.604,0-1.108-0.473-1.141-1.084l-0.348-6.43l-6.435,0.348c-0.567,0.058-1.169-0.448-1.205-1.08      c-0.035-0.631,0.448-1.171,1.083-1.202l7.574-0.413c0.59-0.029,1.168,0.449,1.202,1.08l0.411,7.573      c0.032,0.632-0.449,1.17-1.081,1.205C64.536,41.479,64.517,41.479,64.496,41.479z"
             id="path84" /></g></g><g
         display="inline"
         id="g86"><g
           id="g88"><rect
             x="36.444"
             y="55.849"
             width="7.762"
             height="13.043"
             id="rect90" /></g></g><g
         display="inline"
         id="g92"><g
           id="g94"><rect
             x="46.606"
             y="52.462"
             width="7.762"
             height="16.43"
             id="rect96" /></g></g><g
         display="inline"
         id="g98"><g
           id="g100"><rect
             x="56.766"
             y="47.381"
             width="7.766"
             height="21.511"
             id="rect102" /></g></g></g><g
       display="none"
       id="g104"><g
         display="inline"
         id="g106"><path
           d="M79.672,92.522H20.328c-2.11,0-3.827-1.717-3.827-3.827V11.307c0-2.111,1.717-3.829,3.827-3.829h59.344     c2.11,0,3.827,1.718,3.827,3.829v77.389C83.499,90.806,81.782,92.522,79.672,92.522z M20.328,10.478     c-0.456,0-0.827,0.372-0.827,0.829v77.389c0,0.456,0.371,0.827,0.827,0.827h59.344c0.456,0,0.827-0.371,0.827-0.827V11.307     c0-0.457-0.371-0.829-0.827-0.829H20.328z"
           id="path108" /></g><g
         display="inline"
         id="g110"><g
           id="g112"><path
             d="M71.59,61.424h-42.86c-1.103,0-2-0.897-2-2V28.113c0-1.104,0.897-2,2-2h42.86c1.103,0,2,0.896,2,2v31.311      C73.59,60.526,72.692,61.424,71.59,61.424z M71.59,59.424v1V59.424L71.59,59.424L71.59,59.424z M28.729,28.113v31.311h42.857      l0.003-31.311H28.729z"
             id="path114" /></g><g
           id="g116"><circle
             cx="39.417"
             cy="38.394"
             r="4.234"
             id="circle118"
             d="m 43.651,38.394001 c 0,2.338374 -1.895626,4.234 -4.234,4.234 -2.338374,0 -4.234,-1.895626 -4.234,-4.234 0,-2.338374 1.895626,-4.234 4.234,-4.234 2.338374,0 4.234,1.895626 4.234,4.234 z" /></g><g
           id="g120"><path
             d="M46.212,56.789c-0.621,0.788-1.687,0.825-2.365,0.088l-4.825-5.248c-0.68-0.733-1.767-0.718-2.421,0.041l-7.277,8.45      h42.138L59.744,42.656c-0.618-0.786-1.633-0.79-2.259-0.007L46.212,56.789z"
             id="path122" /></g></g></g><path
       style="fill:#2c3e50;fill-opacity:1"
       d=""
       id="path3119"
       inkscape:connector-curvature="0" /><path
       style="fill:#2c3e50;fill-opacity:1"
       d="M 19.612373,92.31067 C 18.329332,91.995103 17.60087,91.424249 16.966451,90.237206 16.627406,89.602831 16.616158,88.310009 16.616158,49.975565 l 0,-39.606219 0.454379,-0.7932964 c 0.249909,-0.4363126 0.79044,-1.0261925 1.20118,-1.310844 l 0.746801,-0.5175484 30.778274,-0.048469 c 29.985876,-0.047221 30.796246,-0.039253 31.476293,0.309487 0.881571,0.4520855 1.443398,1.0520996 1.812659,1.9358682 0.258471,0.6186072 0.289834,4.9369932 0.289834,39.9079662 0,21.567866 -0.05192,39.473905 -0.115381,39.791199 -0.140035,0.700179 -1.203559,1.982794 -2.010129,2.424226 -0.55079,0.301445 -2.590612,0.324722 -30.832857,0.351855 -16.633676,0.01597 -30.495853,-0.03313 -30.804838,-0.10912 l 0,0 z M 80.383336,89.300889 C 80.667222,88.851777 80.626183,10.971966 80.34191,10.687693 80.168987,10.514772 73.154124,10.462977 49.906965,10.462977 l -30.21023,0 -0.183945,0.483814 c -0.11884,0.312571 -0.16691,14.236794 -0.135813,39.340427 0.04745,38.303098 0.05334,38.860422 0.41394,39.124091 0.566328,0.414098 60.329709,0.305189 60.592419,-0.11042 z"
       id="path3123"
       inkscape:connector-curvature="0" /><path
       style="fill:#2c3e50;fill-opacity:1"
       d="m 31.503602,64.956641 c -0.485254,-0.485255 -0.477031,-1.160022 0.01962,-1.609532 0.380774,-0.344634 0.992169,-0.358626 18.024107,-0.412506 12.124445,-0.03836 17.845729,0.0068 18.320893,0.144577 0.975561,0.282881 1.242239,1.176908 0.573991,1.924277 -0.275244,0.307832 -1.393083,0.327711 -18.428549,0.327711 -17.885846,0 -18.140687,-0.0052 -18.510058,-0.374527 z"
       id="path3125"
       inkscape:connector-curvature="0" /><path
       style="fill:#2c3e50;fill-opacity:1"
       d="m 31.622488,56.516194 c -0.637721,-0.501631 -0.636345,-1.157638 0.0035,-1.660927 l 0.496895,-0.390858 18.035535,0.04955 c 16.51706,0.04538 18.061717,0.07574 18.346491,0.360546 0.445698,0.445754 0.392163,1.285989 -0.107727,1.690776 -0.397553,0.321918 -1.323567,0.339026 -18.349974,0.339026 -17.85705,0 -17.933333,-0.0016 -18.424703,-0.388118 z"
       id="path3127"
       inkscape:connector-curvature="0" /><path
       style="fill:#2c3e50;fill-opacity:1"
       d="m 32.065393,48.344606 c -0.942802,-0.346662 -1.213529,-1.275308 -0.561791,-1.927047 0.369371,-0.36937 0.624212,-0.374527 18.510058,-0.374527 17.035466,0 18.153305,0.01988 18.428549,0.327712 0.5847,0.653929 0.424509,1.542236 -0.341012,1.891031 -0.347213,0.1582 -5.174868,0.211742 -18.11414,0.200898 -9.702423,-0.0081 -17.767172,-0.06126 -17.921664,-0.118067 z"
       id="path3129"
       inkscape:connector-curvature="0" /><path
       style="fill:#2c3e50;fill-opacity:1"
       d="m 31.420589,39.447145 c -0.39235,-0.560158 -0.366908,-1.006519 0.08301,-1.456441 0.369371,-0.36937 0.624212,-0.374527 18.510058,-0.374527 17.331584,0 18.14927,0.01518 18.44545,0.342457 0.391461,0.432559 0.39918,1.226902 0.01566,1.610433 -0.263497,0.26349 -2.201617,0.294272 -18.528469,0.294272 l -18.234193,0 -0.291514,-0.416194 z"
       id="path3131"
       inkscape:connector-curvature="0" /><path
       style="fill:#2c3e50;fill-opacity:1"
       d="m 31.503602,29.376586 c -0.467373,-0.467374 -0.481505,-1.155984 -0.03207,-1.562716 0.306182,-0.277091 1.106453,-0.309919 7.555146,-0.309919 6.749714,0 7.232583,0.02198 7.522608,0.342456 0.416718,0.460468 0.39078,1.074791 -0.06461,1.530179 -0.361385,0.361385 -0.624211,0.374526 -7.490538,0.374526 -6.866326,0 -7.129152,-0.01314 -7.490538,-0.374526 z"
       id="path3133"
       inkscape:connector-curvature="0" /></g></svg>