<?xml version="1.0" encoding="UTF-8" standalone="no"?>
<svg
   xmlns:dc="http://purl.org/dc/elements/1.1/"
   xmlns:cc="http://creativecommons.org/ns#"
   xmlns:rdf="http://www.w3.org/1999/02/22-rdf-syntax-ns#"
   xmlns:svg="http://www.w3.org/2000/svg"
   xmlns="http://www.w3.org/2000/svg"
   xmlns:sodipodi="http://sodipodi.sourceforge.net/DTD/sodipodi-0.dtd"
   xmlns:inkscape="http://www.inkscape.org/namespaces/inkscape"
   version="1.1"
   x="0px"
   y="0px"
   viewBox="0 0 48 38"
   xml:space="preserve"
   id="svg2"
   inkscape:version="0.48.4 r9939"
   width="100%"
   height="100%"
   sodipodi:docname="noun_76598_cc.svg"><metadata
     id="metadata14"><rdf:RDF><cc:Work
         rdf:about=""><dc:format>image/svg+xml</dc:format><dc:type
           rdf:resource="http://purl.org/dc/dcmitype/StillImage" /></cc:Work></rdf:RDF></metadata><defs
     id="defs12" /><sodipodi:namedview
     pagecolor="#ffffff"
     bordercolor="#666666"
     borderopacity="1"
     objecttolerance="10"
     gridtolerance="10"
     guidetolerance="10"
     inkscape:pageopacity="0"
     inkscape:pageshadow="2"
     inkscape:window-width="1366"
     inkscape:window-height="750"
     id="namedview10"
     showgrid="false"
     borderlayer="false"
     fit-margin-top="0"
     fit-margin-left="0"
     fit-margin-right="0"
     fit-margin-bottom="0"
     inkscape:zoom="3.9333333"
     inkscape:cx="24"
     inkscape:cy="13"
     inkscape:window-x="1920"
     inkscape:window-y="18"
     inkscape:window-maximized="1"
     inkscape:current-layer="svg2" /><path
     d="m 31,17 h -9 c -0.265,0 -0.52,0.105 -0.707,0.293 l -5,5 C 16.105,22.48 16,22.734 16,23 v 14 c 0,0.553 0.448,1 1,1 h 14 c 0.552,0 1,-0.447 1,-1 V 18 c 0,-0.553 -0.448,-1 -1,-1 z m -9,2.414 V 23 H 18.414 L 22,19.414 z M 30,36 H 18 V 25 h 5 c 0.552,0 1,-0.447 1,-1 v -5 h 6 v 17 z m -6.707,-9.707 -3,3 c -0.391,0.391 -0.391,1.023 0,1.414 0.391,0.391 1.023,0.391 1.414,0 L 23,29.414 V 34 c 0,0.553 0.448,1 1,1 0.552,0 1,-0.447 1,-1 v -4.586 l 1.293,1.293 C 26.488,30.902 26.744,31 27,31 c 0.256,0 0.512,-0.098 0.707,-0.293 0.391,-0.391 0.391,-1.023 0,-1.414 l -3,-3 c -0.391,-0.391 -1.023,-0.391 -1.414,0 z M 40,16.056 V 16 C 40,7.178 33.271,0 25,0 18.591,0 11.698,3.811 11.05,10.037 4.876,10.523 0,15.703 0,22 0,28.617 5.383,34 12,34 h 1 1 V 23 c 0,-0.801 0.312,-1.555 0.879,-2.121 l 5,-5 C 20.445,15.313 21.199,15 22,15 h 9 c 1.654,0 3,1.346 3,3 v 16 h 2 1 2 c 4.962,0 9,-4.037 9,-9 0,-4.625 -3.506,-8.445 -8,-8.944 z"
     id="path4"
     inkscape:connector-curvature="0" /></svg>