<?xml version="1.0" encoding="UTF-8" standalone="no"?>
<svg
   xmlns:dc="http://purl.org/dc/elements/1.1/"
   xmlns:cc="http://creativecommons.org/ns#"
   xmlns:rdf="http://www.w3.org/1999/02/22-rdf-syntax-ns#"
   xmlns:svg="http://www.w3.org/2000/svg"
   xmlns="http://www.w3.org/2000/svg"
   xmlns:sodipodi="http://sodipodi.sourceforge.net/DTD/sodipodi-0.dtd"
   xmlns:inkscape="http://www.inkscape.org/namespaces/inkscape"
   version="1.1"
   x="0px"
   y="0px"
   viewBox="0 0 48 34"
   xml:space="preserve"
   id="svg2"
   inkscape:version="0.48.4 r9939"
   width="100%"
   height="100%"
   sodipodi:docname="noun_76584_cc.svg"><metadata
     id="metadata14"><rdf:RDF><cc:Work
         rdf:about=""><dc:format>image/svg+xml</dc:format><dc:type
           rdf:resource="http://purl.org/dc/dcmitype/StillImage" /><dc:title></dc:title></cc:Work></rdf:RDF></metadata><defs
     id="defs12" /><sodipodi:namedview
     pagecolor="#ffffff"
     bordercolor="#666666"
     borderopacity="1"
     objecttolerance="10"
     gridtolerance="10"
     guidetolerance="10"
     inkscape:pageopacity="0"
     inkscape:pageshadow="2"
     inkscape:window-width="1366"
     inkscape:window-height="750"
     id="namedview10"
     showgrid="false"
     borderlayer="false"
     fit-margin-top="0"
     fit-margin-left="0"
     fit-margin-right="0"
     fit-margin-bottom="0"
     inkscape:zoom="3.9333333"
     inkscape:cx="23.581733"
     inkscape:cy="9.5990679"
     inkscape:window-x="1920"
     inkscape:window-y="18"
     inkscape:window-maximized="1"
     inkscape:current-layer="svg2" /><g
     id="g3005"
     transform="translate(0,-7)"><path
       id="path2993"
       d="m 19,27 h 10 v 6 H 19 V 27 z M 40,23.056 V 23 C 40,14.178 33.271,7 25,7 18.591,7 11.698,10.811 11.05,17.037 4.875,17.523 0,22.703 0,29 0,35.617 5.383,41 12,41 h 27 c 4.962,0 9,-4.037 9,-9 0,-4.625 -3.506,-8.445 -8,-8.944 z M 31,34 c 0,0.553 -0.448,1 -1,1 H 18 c -0.552,0 -1,-0.447 -1,-1 v -8 c 0,-0.553 0.448,-1 1,-1 h 1 v -3 c 0,-2.757 2.243,-5 5,-5 2.757,0 5,2.243 5,5 v 3 h 1 c 0.552,0 1,0.447 1,1 v 8 z M 27,22 c 0,-1.654 -1.346,-3 -3,-3 -1.654,0 -3,1.346 -3,3 v 3 h 6 v -3 z"
       inkscape:connector-curvature="0" /><text
       id="text2995"
       font-weight="bold"
       font-size="5px"
       y="63"
       x="0"
       style="font-size:5px;font-weight:bold;fill:#000000;font-family:'\'Helvetica Neue\', Helvetica, Arial-Unicode, Arial, Sans-serif'" />
</g></svg>