<?xml version="1.0" encoding="UTF-8" standalone="no"?>
<svg
   xmlns:dc="http://purl.org/dc/elements/1.1/"
   xmlns:cc="http://creativecommons.org/ns#"
   xmlns:rdf="http://www.w3.org/1999/02/22-rdf-syntax-ns#"
   xmlns:svg="http://www.w3.org/2000/svg"
   xmlns="http://www.w3.org/2000/svg"
   xmlns:sodipodi="http://sodipodi.sourceforge.net/DTD/sodipodi-0.dtd"
   xmlns:inkscape="http://www.inkscape.org/namespaces/inkscape"
   version="1.1"
   x="0px"
   y="0px"
   viewBox="0 0 100 125"
   enable-background="new 0 0 100 100"
   xml:space="preserve"
   id="svg2"
   inkscape:version="0.48.4 r9939"
   width="100%"
   height="100%"
   sodipodi:docname="noun_66961_cc.svg"><metadata
     id="metadata132"><rdf:RDF><cc:Work
         rdf:about=""><dc:format>image/svg+xml</dc:format><dc:type
           rdf:resource="http://purl.org/dc/dcmitype/StillImage" /></cc:Work></rdf:RDF></metadata><defs
     id="defs130" /><sodipodi:namedview
     pagecolor="#ffffff"
     bordercolor="#666666"
     borderopacity="1"
     objecttolerance="10"
     gridtolerance="10"
     guidetolerance="10"
     inkscape:pageopacity="0"
     inkscape:pageshadow="2"
     inkscape:window-width="1366"
     inkscape:window-height="750"
     id="namedview128"
     showgrid="false"
     showguides="true"
     inkscape:guide-bbox="true"
     inkscape:zoom="2.6700352"
     inkscape:cx="22.889483"
     inkscape:cy="78.207914"
     inkscape:window-x="1920"
     inkscape:window-y="18"
     inkscape:window-maximized="1"
     inkscape:current-layer="g32"><sodipodi:guide
       orientation="0,1"
       position="49.142611,117.52681"
       id="guide3109" /><sodipodi:guide
       orientation="1,0"
       position="16.496739,113.10127"
       id="guide3111" /><sodipodi:guide
       orientation="0,1"
       position="81.588344,32.478504"
       id="guide3113" /><sodipodi:guide
       orientation="1,0"
       position="83.49609,110.32158"
       id="guide3115" /></sodipodi:namedview><g
     display="none"
     id="g4"><g
       display="inline"
       id="g6"><g
         id="g8"><path
           d="M29.634,62.419c-0.025,0-0.085-0.001-0.111-0.003l-0.64,0.002c-1.698,0-3.078-1.381-3.078-3.079V34.357     c0-1.698,1.38-3.079,3.078-3.079h35.001c1.694,0,3.073,1.453,3.073,3.151v24.909c0,1.698-1.379,3.079-3.076,3.079H48.132     c-0.813-0.014-2.414-0.516-2.777-2.331c-0.795-2.949-3.543-5.059-6.667-5.059c-3.197,0-6.034,2.266-6.744,5.386     C31.776,61.767,30.659,62.419,29.634,62.419z M28.881,33.621c-0.444,0-0.807,0.29-0.807,0.736v24.981     c0,0.446,0.363,0.809,0.809,0.809l0.748,0.001c0.004-0.036,0.092-0.203,0.099-0.237c0.944-4.144,4.711-7.151,8.958-7.151     c4.149,0,7.799,2.8,8.876,6.809c0.112,0.547,0.508,0.579,0.586,0.579h15.73c0.444,0,0.807-0.362,0.807-0.809V34.43     c0-0.446-0.362-0.809-0.807-0.809H28.881z"
           id="path10" /></g></g><g
       display="inline"
       id="g12"><circle
         cx="38.688"
         cy="61.952"
         r="4.909"
         id="circle14" /></g><g
       display="inline"
       id="g16"><circle
         cx="79.069"
         cy="61.952"
         r="4.908"
         id="circle18" /></g><g
       display="inline"
       id="g20"><path
         d="M89.09,48.85c0,0-0.07-1.559-0.215-2.324c-0.121-0.65-0.81-1.97-0.81-1.97L82.627,34.43    c-0.71-1.133-2.322-2.017-3.396-2.017H71.1c-1.072,0-1.943,0.87-1.943,1.944v24.981c0,1.074,0.871,1.945,1.943,1.945h0.479    c0,0,0.706-0.092,0.971-0.977c0.734-2.93,3.363-5.113,6.519-5.113c3.088,0,5.672,2.091,6.469,4.927    c0.33,1.201,1.662,1.163,1.662,1.163c1.074,0,1.943-0.871,1.943-1.945L89.09,48.85z M83.547,45.591h-8.516    c-0.718,0-1.303-0.588-1.303-1.302v-6.665c0-0.718,0.585-1.302,1.303-1.302h2.856c1.626,0,2.694,1.315,3.031,1.948l3.314,6.174    C84.572,45.074,84.265,45.591,83.547,45.591z"
         id="path22" /></g><path
       display="inline"
       d="M18.542,35.289h-8.531c-0.548,0-0.993-0.444-0.993-0.993c0-0.548,0.445-0.993,0.993-0.993h8.531   c0.548,0,0.993,0.445,0.993,0.993C19.535,34.845,19.09,35.289,18.542,35.289z"
       id="path24" /><path
       display="inline"
       d="M20.98,41.383h-5.282c-0.549,0-0.993-0.444-0.993-0.993c0-0.548,0.444-0.993,0.993-0.993h5.282   c0.548,0,0.993,0.445,0.993,0.993C21.974,40.938,21.529,41.383,20.98,41.383z"
       id="path26" /><path
       display="inline"
       d="M89.99,68.722H13.337c-0.548,0-0.993-0.444-0.993-0.994c0-0.549,0.445-0.994,0.993-0.994H89.99   c0.548,0,0.992,0.445,0.992,0.994C90.982,68.277,90.538,68.722,89.99,68.722z"
       id="path28" /></g><g
     id="g30"
     transform="matrix(1.4891355,0,0,1.4712194,-24.363146,-11.014316)"><g
       id="g32"><g
         id="g34"
         style="fill:#2c3e50;fill-opacity:1"><path
           d="M 79.672,92.522 H 20.328 c -2.11,0 -3.827,-1.717 -3.827,-3.827 V 11.307 c 0,-2.111 1.717,-3.829 3.827,-3.829 h 59.344 c 2.11,0 3.827,1.718 3.827,3.829 v 77.389 c 0,2.11 -1.717,3.826 -3.827,3.826 z M 20.328,10.478 c -0.456,0 -0.827,0.372 -0.827,0.829 v 77.389 c 0,0.456 0.371,0.827 0.827,0.827 h 59.344 c 0.456,0 0.827,-0.371 0.827,-0.827 V 11.307 c 0,-0.457 -0.371,-0.829 -0.827,-0.829 H 20.328 z"
           id="path36"
           inkscape:connector-curvature="0"
           style="fill:#2c3e50;fill-opacity:1" /></g><g
         id="g38"
         style="fill:#2c3e50;fill-opacity:1"><g
           id="g40"
           style="fill:#2c3e50;fill-opacity:1"><path
             d="M 45.694,29.862 H 32.29 c -0.702,0 -1.271,-0.568 -1.271,-1.272 0,-0.697 0.568,-1.27 1.271,-1.27 h 13.404 c 0.699,0 1.269,0.572 1.269,1.27 0,0.704 -0.569,1.272 -1.269,1.272 z"
             id="path42"
             inkscape:connector-curvature="0"
             style="fill:#2c3e50;fill-opacity:1" /></g></g><g
         id="g44"
         style="fill:#2c3e50;fill-opacity:1"><g
           id="g46"
           style="fill:#2c3e50;fill-opacity:1"><path
             d="M 67.711,40.024 H 32.29 c -0.702,0 -1.271,-0.569 -1.271,-1.27 0,-0.702 0.568,-1.27 1.271,-1.27 h 35.421 c 0.701,0 1.268,0.567 1.268,1.27 0,0.701 -0.567,1.27 -1.268,1.27 z"
             id="path48"
             inkscape:connector-curvature="0"
             style="fill:#2c3e50;fill-opacity:1" /></g></g><g
         id="g50"
         style="fill:#2c3e50;fill-opacity:1"><g
           id="g52"
           style="fill:#2c3e50;fill-opacity:1"><path
             d="M 67.711,48.493 H 32.29 c -0.702,0 -1.271,-0.569 -1.271,-1.27 0,-0.703 0.568,-1.271 1.271,-1.271 h 35.421 c 0.701,0 1.268,0.568 1.268,1.271 0,0.701 -0.567,1.27 -1.268,1.27 z"
             id="path54"
             inkscape:connector-curvature="0"
             style="fill:#2c3e50;fill-opacity:1" /></g></g><g
         id="g56"
         style="fill:#2c3e50;fill-opacity:1"><g
           id="g58"
           style="fill:#2c3e50;fill-opacity:1"><path
             d="M 67.711,56.964 H 32.29 c -0.702,0 -1.271,-0.571 -1.271,-1.272 0,-0.705 0.568,-1.271 1.271,-1.271 h 35.421 c 0.701,0 1.268,0.566 1.268,1.271 0,0.701 -0.567,1.272 -1.268,1.272 z"
             id="path60"
             inkscape:connector-curvature="0"
             style="fill:#2c3e50;fill-opacity:1" /></g></g><g
         id="g62"
         style="fill:#2c3e50;fill-opacity:1"><g
           id="g64"
           style="fill:#2c3e50;fill-opacity:1"><path
             d="M 67.711,65.432 H 32.29 c -0.702,0 -1.271,-0.571 -1.271,-1.271 0,-0.7 0.568,-1.271 1.271,-1.271 h 35.421 c 0.701,0 1.268,0.571 1.268,1.271 0,0.7 -0.567,1.271 -1.268,1.271 z"
             id="path66"
             inkscape:connector-curvature="0"
             style="fill:#2c3e50;fill-opacity:1" /></g></g></g><g
       display="none"
       id="g68"
       style="display:none"><g
         display="inline"
         id="g70"
         style="display:inline"><path
           d="M 79.673,92.522 H 20.329 c -2.111,0 -3.829,-1.717 -3.829,-3.827 V 11.307 c 0,-2.111 1.718,-3.829 3.829,-3.829 h 59.344 c 2.11,0 3.827,1.718 3.827,3.829 v 77.389 c 0,2.11 -1.717,3.826 -3.827,3.826 z M 20.329,10.478 c -0.457,0 -0.829,0.372 -0.829,0.829 v 77.389 c 0,0.456 0.372,0.827 0.829,0.827 h 59.344 c 0.456,0 0.827,-0.371 0.827,-0.827 V 11.307 c 0,-0.457 -0.371,-0.829 -0.827,-0.829 H 20.329 z"
           id="path72"
           inkscape:connector-curvature="0" /></g><g
         display="inline"
         id="g74"
         style="display:inline"><g
           id="g76"><path
             d="m 36.572,49.071 c -0.293,0 -0.586,-0.108 -0.81,-0.334 -0.444,-0.447 -0.444,-1.171 0,-1.618 l 7.495,-7.491 c 0.45,-0.444 1.17,-0.444 1.619,0 l 5.302,5.301 12.335,-11.984 c 0.455,-0.436 1.179,-0.429 1.62,0.023 0.438,0.451 0.429,1.18 -0.023,1.619 L 50.963,47.353 c -0.451,0.438 -1.165,0.434 -1.608,-0.012 l -5.29,-5.289 -6.683,6.686 c -0.226,0.225 -0.518,0.333 -0.81,0.333 z"
             id="path78"
             inkscape:connector-curvature="0" /></g></g><g
         display="inline"
         id="g80"
         style="display:inline"><g
           id="g82"><path
             d="m 64.496,41.479 c -0.604,0 -1.108,-0.473 -1.141,-1.084 l -0.348,-6.43 -6.435,0.348 c -0.567,0.058 -1.169,-0.448 -1.205,-1.08 -0.035,-0.631 0.448,-1.171 1.083,-1.202 l 7.574,-0.413 c 0.59,-0.029 1.168,0.449 1.202,1.08 l 0.411,7.573 c 0.032,0.632 -0.449,1.17 -1.081,1.205 -0.02,0.003 -0.039,0.003 -0.06,0.003 z"
             id="path84"
             inkscape:connector-curvature="0" /></g></g><g
         display="inline"
         id="g86"
         style="display:inline"><g
           id="g88"><rect
             x="36.444"
             y="55.848999"
             width="7.7620001"
             height="13.043"
             id="rect90" /></g></g><g
         display="inline"
         id="g92"
         style="display:inline"><g
           id="g94"><rect
             x="46.605999"
             y="52.462002"
             width="7.7620001"
             height="16.43"
             id="rect96" /></g></g><g
         display="inline"
         id="g98"
         style="display:inline"><g
           id="g100"><rect
             x="56.765999"
             y="47.381001"
             width="7.7659998"
             height="21.511"
             id="rect102" /></g></g></g><g
       display="none"
       id="g104"
       style="display:none"><g
         display="inline"
         id="g106"
         style="display:inline"><path
           d="M 79.672,92.522 H 20.328 c -2.11,0 -3.827,-1.717 -3.827,-3.827 V 11.307 c 0,-2.111 1.717,-3.829 3.827,-3.829 h 59.344 c 2.11,0 3.827,1.718 3.827,3.829 v 77.389 c 0,2.11 -1.717,3.826 -3.827,3.826 z M 20.328,10.478 c -0.456,0 -0.827,0.372 -0.827,0.829 v 77.389 c 0,0.456 0.371,0.827 0.827,0.827 h 59.344 c 0.456,0 0.827,-0.371 0.827,-0.827 V 11.307 c 0,-0.457 -0.371,-0.829 -0.827,-0.829 H 20.328 z"
           id="path108"
           inkscape:connector-curvature="0" /></g><g
         display="inline"
         id="g110"
         style="display:inline"><g
           id="g112"><path
             d="M 71.59,61.424 H 28.73 c -1.103,0 -2,-0.897 -2,-2 V 28.113 c 0,-1.104 0.897,-2 2,-2 h 42.86 c 1.103,0 2,0.896 2,2 v 31.311 c 0,1.102 -0.898,2 -2,2 z m 0,-2 v 1 -1 l 0,0 0,0 z M 28.729,28.113 v 31.311 h 42.857 l 0.003,-31.311 h -42.86 z"
             id="path114"
             inkscape:connector-curvature="0" /></g><g
           id="g116"><circle
             cx="39.417"
             cy="38.394001"
             r="4.2340002"
             id="circle118"
             d="m 43.651,38.394001 c 0,2.338374 -1.895626,4.234 -4.234,4.234 -2.338374,0 -4.234,-1.895626 -4.234,-4.234 0,-2.338374 1.895626,-4.234 4.234,-4.234 2.338374,0 4.234,1.895626 4.234,4.234 z"
             sodipodi:cx="39.417"
             sodipodi:cy="38.394001"
             sodipodi:rx="4.2340002"
             sodipodi:ry="4.2340002" /></g><g
           id="g120"><path
             d="m 46.212,56.789 c -0.621,0.788 -1.687,0.825 -2.365,0.088 l -4.825,-5.248 c -0.68,-0.733 -1.767,-0.718 -2.421,0.041 l -7.277,8.45 H 71.462 L 59.744,42.656 c -0.618,-0.786 -1.633,-0.79 -2.259,-0.007 l -11.273,14.14 z"
             id="path122"
             inkscape:connector-curvature="0" /></g></g></g><path
       style="opacity:0;fill:#000000;fill-opacity:1"
       d="M 3.8635171,124.46461 C 2.4861265,123.85242 1.2366896,122.53334 0.70498657,121.13002 0.42834265,120.39988 0.30551154,102.37294 0.30551154,62.502287 l 0,-57.5734016 L 1.1481971,3.2854995 C 1.672904,2.2622281 2.4855159,1.3829008 3.3017267,0.95516483 4.555336,0.29820994 6.6157943,0.2724707 50.492116,0.36566249 95.711553,0.46170703 96.386024,0.47388635 97.37,1.2121629 c 0.549082,0.4119796 1.307499,1.2546651 1.685371,1.8726345 0.658624,1.0771232 0.687032,3.540578 0.687032,59.5789446 l 0,58.455368 -1.079319,1.41504 c -1.998607,2.62029 1.175928,2.4607 -48.627097,2.44449 -36.7053,-0.0119 -45.2569899,-0.10715 -46.1724699,-0.51403 z M 95.422168,120.14907 C 95.842203,119.36423 95.999965,6.0758635 95.582536,4.9880633 95.376973,4.4523767 91.022877,4.3956415 50.117589,4.3956415 9.212299,4.3956415 4.8582032,4.4523767 4.6526411,4.9880633 4.5276076,5.3138957 4.4253074,31.319171 4.4253074,62.777565 c 0,43.987245 0.1037975,57.300875 0.4494323,57.646505 0.344555,0.34456 10.9166113,0.44944 45.3045783,0.44944 43.963653,0 44.862851,-0.0144 45.24285,-0.72444 l 0,0 z"
       id="path3968"
       inkscape:connector-curvature="0"
       transform="matrix(0.67153056,0,0,0.67970827,16.360597,7.4865217)" /><path
       style="opacity:0;fill:#2c3e50;fill-opacity:1"
       d="M 3.8635171,124.46461 C 2.4861265,123.85242 1.2366896,122.53334 0.70498657,121.13002 0.42834265,120.39988 0.30551154,102.37294 0.30551154,62.502287 l 0,-57.5734016 L 1.1481971,3.2854995 C 1.672904,2.2622281 2.4855159,1.3829008 3.3017267,0.95516483 4.555336,0.29820994 6.6157943,0.2724707 50.492116,0.36566249 95.711553,0.46170703 96.386024,0.47388635 97.37,1.2121629 c 0.549082,0.4119796 1.307499,1.2546651 1.685371,1.8726345 0.658624,1.0771232 0.687032,3.540578 0.687032,59.5789446 l 0,58.455368 -1.079319,1.41504 c -1.998607,2.62029 1.175928,2.4607 -48.627097,2.44449 -36.7053,-0.0119 -45.2569899,-0.10715 -46.1724699,-0.51403 z M 95.422168,120.14907 C 95.842203,119.36423 95.999965,6.0758635 95.582536,4.9880633 95.376973,4.4523767 91.022877,4.3956415 50.117589,4.3956415 9.212299,4.3956415 4.8582032,4.4523767 4.6526411,4.9880633 4.5276076,5.3138957 4.4253074,31.319171 4.4253074,62.777565 c 0,43.987245 0.1037975,57.300875 0.4494323,57.646505 0.344555,0.34456 10.9166113,0.44944 45.3045783,0.44944 43.963653,0 44.862851,-0.0144 45.24285,-0.72444 l 0,0 z"
       id="path3970"
       inkscape:connector-curvature="0"
       transform="matrix(0.67153056,0,0,0.67970827,16.360597,7.4865217)" /><path
       style="opacity:0;fill:#2c3e50;fill-opacity:1"
       d="M 3.572776,124.237 C 2.6226043,123.76667 1.738669,122.9343 1.2319829,122.03278 L 0.4178696,120.58426 0.41845162,62.583582 C 0.4189982,8.1118097 0.45887573,4.5036041 1.0738737,3.2795264 1.4340357,2.5626681 2.3013831,1.5935798 3.0013124,1.1259967 l 1.2725985,-0.85015107 45.7305261,0.0014 c 44.971265,0.001378 45.750794,0.0137564 46.951164,0.74563056 0.67135,0.4093269 1.555537,1.2935166 1.964865,1.9648663 0.734226,1.2042268 0.74423,2.0060514 0.74423,59.6468315 0,57.930376 -0.0064,58.436706 -0.755391,59.665186 -0.436144,0.71536 -1.424831,1.54288 -2.339392,1.95804 -1.533463,0.69611 -3.017904,0.7193 -46.527229,0.72698 -44.3292366,0.008 -44.9640848,-0.002 -46.469908,-0.74778 l 0,0 z m 91.787662,-61.602426 0,-58.0516691 -45.317754,0 -45.3177551,0 -0.094824,57.6373301 c -0.069736,42.387995 0.017045,57.772125 0.3280031,58.146805 0.3530636,0.42542 7.8458318,0.49378 45.4125788,0.41434 l 44.989751,-0.0951 0,-58.051666 z"
       id="path3972"
       inkscape:connector-curvature="0"
       transform="matrix(0.67153056,0,0,0.67970827,16.360597,7.4865217)" /><path
       style="opacity:0;fill:#2c3e50;fill-opacity:1"
       d="M 3.572776,124.237 C 2.6226043,123.76667 1.738669,122.9343 1.2319829,122.03278 L 0.4178696,120.58426 0.41845162,62.583582 C 0.4189982,8.1118097 0.45887573,4.5036041 1.0738737,3.2795264 1.4340357,2.5626681 2.3013831,1.5935798 3.0013124,1.1259967 l 1.2725985,-0.85015107 45.7305261,0.0014 c 44.971265,0.001378 45.750794,0.0137564 46.951164,0.74563056 0.67135,0.4093269 1.555537,1.2935166 1.964865,1.9648663 0.734226,1.2042268 0.74423,2.0060514 0.74423,59.6468315 0,57.930376 -0.0064,58.436706 -0.755391,59.665186 -0.436144,0.71536 -1.424831,1.54288 -2.339392,1.95804 -1.533463,0.69611 -3.017904,0.7193 -46.527229,0.72698 -44.3292366,0.008 -44.9640848,-0.002 -46.469908,-0.74778 l 0,0 z m 91.787662,-61.602426 0,-58.0516691 -45.317754,0 -45.3177551,0 -0.094824,57.6373301 c -0.069736,42.387995 0.017045,57.772125 0.3280031,58.146805 0.3530636,0.42542 7.8458318,0.49378 45.4125788,0.41434 l 44.989751,-0.0951 0,-58.051666 z"
       id="path3974"
       inkscape:connector-curvature="0"
       transform="matrix(0.67153056,0,0,0.67970827,16.360597,7.4865217)" /><path
       style="opacity:0;fill:#2c3e50;fill-opacity:1;stroke:#000000;stroke-opacity:1"
       d="m 23.170634,32.601564 c -0.843008,-0.220324 -1.253549,-1.830439 -0.651641,-2.555694 0.389395,-0.469192 2.15419,-0.556926 11.202724,-0.556926 7.854365,0 10.861285,0.120769 11.189948,0.449432 0.696658,0.696658 0.532855,1.696823 -0.382956,2.338282 -0.706668,0.494969 -2.332972,0.576466 -10.767648,0.539582 -5.464393,-0.0239 -10.230085,-0.120499 -10.590427,-0.214676 z"
       id="path3976"
       inkscape:connector-curvature="0"
       transform="matrix(0.67153056,0,0,0.67970827,16.360597,7.4865217)" /><path
       style="opacity:0;fill:#2c3e50;fill-opacity:1;stroke:#000000;stroke-width:0.37452689;stroke-opacity:1"
       d="M 3.572776,124.237 C 2.6226043,123.76667 1.738669,122.9343 1.2319829,122.03278 L 0.4178696,120.58426 0.41845162,62.583582 C 0.4189982,8.1118097 0.45887573,4.5036041 1.0738737,3.2795264 1.4340357,2.5626681 2.3013831,1.5935798 3.0013124,1.1259967 l 1.2725985,-0.85015107 45.7305261,0.0014 c 44.971265,0.001378 45.750794,0.0137564 46.951164,0.74563057 0.67135,0.4093269 1.555537,1.2935166 1.964865,1.9648663 0.734226,1.2042268 0.74423,2.0060514 0.74423,59.6468315 0,57.930376 -0.0064,58.436706 -0.755391,59.665186 -0.436144,0.71536 -1.424831,1.54288 -2.339392,1.95804 -1.533463,0.69611 -3.017904,0.7193 -46.527229,0.72698 -44.3292366,0.008 -44.9640848,-0.002 -46.469908,-0.74778 l 0,0 z m 91.787662,-61.602426 0,-58.0516691 -45.317754,0 -45.3177551,0 -0.094824,57.6373301 c -0.069736,42.387995 0.017045,57.772125 0.3280031,58.146805 0.3530636,0.42542 7.845832,0.49378 45.412579,0.41434 l 44.989751,-0.0951 0,-58.051666 z"
       id="path3978"
       inkscape:connector-curvature="0"
       transform="matrix(0.67153056,0,0,0.67970827,16.360597,7.4865217)" /><path
       style="opacity:0;fill:#2c3e50;fill-opacity:1;stroke:#000000;stroke-width:0.37452689;stroke-opacity:1"
       d="M 5.1633864,120.2508 C 5.0252297,120.11265 4.9121924,94.163185 4.9121924,62.585331 4.9121924,6.2048258 4.9252362,5.164069 5.6366242,4.7833457 6.4199703,4.3641116 92.782105,4.2167562 94.331673,4.6320098 l 0.843865,0.2261401 -0.09481,57.7267841 -0.09481,57.726786 -44.785664,0.0951 C 25.56813,120.45919 5.3015432,120.38896 5.1633864,120.2508 z M 78.150186,84.38225 c 0.678994,-1.036282 0.305977,-2.159586 -0.938265,-2.825483 -0.468743,-0.250866 -9.806496,-0.381205 -27.050984,-0.377591 -28.508089,0.006 -28.095485,-0.02303 -28.328465,1.992071 -0.258141,2.232742 -1.729438,2.122204 28.247436,2.122204 l 27.473233,0 0.597045,-0.911201 z m -0.20429,-12.01113 c 0.685156,-0.825562 0.569468,-2.487338 -0.21299,-3.059484 -0.550592,-0.402605 -5.834949,-0.497368 -27.735053,-0.497368 -24.095963,0 -27.119233,0.06437 -27.643408,0.588543 -0.795211,0.79521 -0.755587,2.647684 0.06688,3.126726 0.428368,0.249503 10.078486,0.385696 27.856397,0.393137 23.7559,0.01 27.260142,-0.05991 27.668174,-0.551554 z m -0.21299,-12.293812 c 0.374104,-0.273551 0.68019,-0.947178 0.68019,-1.496954 0,-2.244401 1.570399,-2.125474 -28.066368,-2.125474 -17.986522,0 -27.376147,0.130684 -27.856393,0.387703 -0.891905,0.477335 -0.971058,2.308382 -0.13589,3.14355 0.524175,0.524177 3.547445,0.588543 27.643408,0.588543 21.900104,0 27.184461,-0.09476 27.735053,-0.497368 z M 77.211921,47.832177 c 1.244242,-0.665897 1.617259,-1.789201 0.938265,-2.825483 l -0.597045,-0.911201 -27.473233,0 c -29.976874,0 -28.505577,-0.110538 -28.247436,2.122204 0.23298,2.015108 -0.179624,1.986094 28.328465,1.992071 17.244488,0.0037 26.582241,-0.126725 27.050984,-0.377591 z M 44.903234,32.651185 c 0.970815,-0.679984 1.088555,-2.103519 0.243847,-2.948226 C 44.63889,29.194768 43.064,29.114417 33.611653,29.114417 c -3.848243,0 -6.446421,0.0017 -8.200579,0.07115 -3.600939,0.142552 -3.645171,0.570543 -3.645171,1.855152 0,2.081109 0.614047,2.193494 11.98486,2.193494 8.734324,0 10.447986,-0.08959 11.152471,-0.583028 z"
       id="path3980"
       inkscape:connector-curvature="0"
       transform="matrix(0.67153056,0,0,0.67970827,16.360597,7.4865217)"
       sodipodi:nodetypes="cssscccsccssssccccssssscccssssscccscsssccsssssss" /></g><path
     style="fill:none"
     d="M 4.4814864,124.76881 C 2.679475,124.1989 1.605167,123.28073 0.84539361,121.66115 l -0.48370308,-1.03109 0,-58.145297 0,-58.1453006 0.40829254,-0.8838037 C 1.3368462,2.2286075 2.677725,0.98132563 3.9361681,0.51048172 l 1.0355517,-0.38744956 45.4471652,0.0483172 45.447164,0.0483172 0.790664,0.42249244 C 97.89677,1.3047861 98.709637,2.1219861 99.2761,3.2755059 l 0.522482,1.0639565 0.05249,57.7707736 c 0.03719,40.926064 -0.0065,58.016484 -0.149952,58.613464 -0.446735,1.85956 -2.233521,3.62019 -4.152076,4.09127 -1.336465,0.32816 -90.0261181,0.2832 -91.0675596,-0.0462 z m 90.7291406,-4.41964 c 0.3729,-0.3729 0.374527,-0.62421 0.374527,-57.835383 l 0,-57.4608555 -0.394187,-0.3567344 C 94.805648,4.347488 93.789963,4.3394624 50.043931,4.3394624 l -44.7528497,0 L 4.9330997,4.781551 C 4.582374,5.2146788 4.5751181,6.3865888 4.5751181,62.59914 c 0,57.12582 0.00163,57.37713 0.3745269,57.75003 0.3724374,0.37244 0.6242115,0.37453 45.130491,0.37453 44.50628,0 44.758054,-0.002 45.130491,-0.37453 z"
     id="path3086"
     inkscape:connector-curvature="0" /><path
     style="fill:none"
     d="M 4.4814864,124.76881 C 2.679475,124.1989 1.605167,123.28073 0.84539361,121.66115 l -0.48370308,-1.03109 0,-58.145297 0,-58.1453006 0.40829254,-0.8838037 C 1.3368462,2.2286075 2.677725,0.98132563 3.9361681,0.51048172 l 1.0355517,-0.38744956 45.4471652,0.0483172 45.447164,0.0483172 0.790664,0.42249244 C 97.89677,1.3047861 98.709637,2.1219861 99.2761,3.2755059 l 0.522482,1.0639565 0.05249,57.7707736 c 0.03719,40.926064 -0.0065,58.016484 -0.149952,58.613464 -0.446735,1.85956 -2.233521,3.62019 -4.152076,4.09127 -1.336465,0.32816 -90.0261181,0.2832 -91.0675596,-0.0462 z m 90.7291406,-4.41964 c 0.3729,-0.3729 0.374527,-0.62421 0.374527,-57.835383 l 0,-57.4608555 -0.394187,-0.3567344 C 94.805648,4.347488 93.789963,4.3394624 50.043931,4.3394624 l -44.7528497,0 L 4.9330997,4.781551 C 4.582374,5.2146788 4.5751181,6.3865888 4.5751181,62.59914 c 0,57.12582 0.00163,57.37713 0.3745269,57.75003 0.3724374,0.37244 0.6242115,0.37453 45.130491,0.37453 44.50628,0 44.758054,-0.002 45.130491,-0.37453 z"
     id="path3088"
     inkscape:connector-curvature="0" /><path
     style="fill:#2c3e50;opacity:0;fill-opacity:1"
     d="M 4.4814864,124.76881 C 2.679475,124.1989 1.605167,123.28073 0.84539361,121.66115 l -0.48370308,-1.03109 0,-58.145297 0,-58.1453006 0.40829254,-0.8838037 C 1.3368462,2.2286075 2.677725,0.98132563 3.9361681,0.51048172 l 1.0355517,-0.38744956 45.4471652,0.0483172 45.447164,0.0483172 0.790664,0.42249244 C 97.89677,1.3047861 98.709637,2.1219861 99.2761,3.2755059 l 0.522482,1.0639565 0.05249,57.7707736 c 0.03719,40.926064 -0.0065,58.016484 -0.149952,58.613464 -0.446735,1.85956 -2.233521,3.62019 -4.152076,4.09127 -1.336465,0.32816 -90.0261181,0.2832 -91.0675596,-0.0462 z m 90.7291406,-4.41964 c 0.3729,-0.3729 0.374527,-0.62421 0.374527,-57.835383 l 0,-57.4608555 -0.394187,-0.3567344 C 94.805648,4.347488 93.789963,4.3394624 50.043931,4.3394624 l -44.7528497,0 L 4.9330997,4.781551 C 4.582374,5.2146788 4.5751181,6.3865888 4.5751181,62.59914 c 0,57.12582 0.00163,57.37713 0.3745269,57.75003 0.3724374,0.37244 0.6242115,0.37453 45.130491,0.37453 44.50628,0 44.758054,-0.002 45.130491,-0.37453 z"
     id="path3090"
     inkscape:connector-curvature="0" /><path
     style="opacity:0;fill:#2c3e50;fill-opacity:1"
     d="M 4.44318,124.77862 C 2.7027516,124.30734 1.2137132,122.87651 0.60599985,121.09144 0.35340526,120.34948 0.32684406,113.73172 0.3696472,62.203868 L 0.41786956,4.152199 0.91612282,3.2158817 C 1.5099575,2.099948 2.358837,1.2631577 3.5077165,0.66119616 L 4.350402,0.21966657 49.797567,0.17134936 c 45.427923,-0.0482967 45.447599,-0.0481545 46.473966,0.33585827 1.29267,0.4836503 2.442601,1.58654527 3.086725,2.96047157 l 0.496503,1.0590467 0,57.9580371 c 0,56.677507 -0.0079,57.978607 -0.359065,58.889077 -0.471728,1.22318 -1.755606,2.57193 -2.971648,3.1218 l -0.976346,0.44148 -45.130492,0.035 c -35.01258,0.0271 -45.3196059,-0.0163 -45.97403,-0.19346 z m 90.716338,-4.34891 c 0.161694,-0.1617 0.338327,-0.47771 0.392515,-0.70224 0.05419,-0.22454 0.07538,-26.128218 0.0471,-57.563734 C 95.550018,7.5828129 95.532638,4.9931892 95.213303,4.6738571 94.894148,4.3547064 92.839818,4.3394624 50.149287,4.3394624 c -43.7231848,0 -44.7384848,0.00803 -45.1238025,0.3567347 l -0.3941873,0.3567344 0,57.4929265 c 0,53.234982 0.022953,57.518292 0.3099187,57.835382 0.2985991,0.32995 1.9464547,0.34246 45.1171151,0.34246 40.46595,0 44.835681,-0.0285 45.101187,-0.29399 l 0,0 z"
     id="path3860"
     inkscape:connector-curvature="0" /><path
     style="opacity:0;fill:#2c3e50;fill-opacity:1"
     d="M 4.44318,124.77862 C 2.7027516,124.30734 1.2137132,122.87651 0.60599985,121.09144 0.35340526,120.34948 0.32684406,113.73172 0.3696472,62.203868 L 0.41786956,4.152199 0.91612282,3.2158817 C 1.5099575,2.099948 2.358837,1.2631577 3.5077165,0.66119616 L 4.350402,0.21966657 49.797567,0.17134936 c 45.427923,-0.0482967 45.447599,-0.0481545 46.473966,0.33585827 1.29267,0.4836503 2.442601,1.58654527 3.086725,2.96047157 l 0.496503,1.0590467 0,57.9580371 c 0,56.677507 -0.0079,57.978607 -0.359065,58.889077 -0.471728,1.22318 -1.755606,2.57193 -2.971648,3.1218 l -0.976346,0.44148 -45.130492,0.035 c -35.01258,0.0271 -45.3196059,-0.0163 -45.97403,-0.19346 z m 90.716338,-4.34891 c 0.161694,-0.1617 0.338327,-0.47771 0.392515,-0.70224 0.05419,-0.22454 0.07538,-26.128218 0.0471,-57.563734 C 95.550018,7.5828129 95.532638,4.9931892 95.213303,4.6738571 94.894148,4.3547064 92.839818,4.3394624 50.149287,4.3394624 c -43.7231848,0 -44.7384848,0.00803 -45.1238025,0.3567347 l -0.3941873,0.3567344 0,57.4929265 c 0,53.234982 0.022953,57.518292 0.3099187,57.835382 0.2985991,0.32995 1.9464547,0.34246 45.1171151,0.34246 40.46595,0 44.835681,-0.0285 45.101187,-0.29399 l 0,0 z"
     id="path3862"
     inkscape:connector-curvature="0" /><path
     style="opacity:0;fill:#2c3e50;fill-opacity:1"
     d="M 4.4814864,124.76881 C 2.679475,124.1989 1.605167,123.28073 0.84539361,121.66115 l -0.48370308,-1.03109 0,-58.145297 0,-58.1453006 0.40829254,-0.8838037 C 1.3368462,2.2286075 2.677725,0.98132563 3.9361681,0.51048172 l 1.0355517,-0.38744956 45.4471652,0.0483172 45.447164,0.0483172 0.790664,0.42249244 C 97.89677,1.3047861 98.709637,2.1219861 99.2761,3.2755059 l 0.522482,1.0639565 0.05249,57.7707736 c 0.03719,40.926064 -0.0065,58.016484 -0.149952,58.613464 -0.446735,1.85956 -2.233521,3.62019 -4.152076,4.09127 -1.336465,0.32816 -90.0261181,0.2832 -91.0675596,-0.0462 z m 90.7291406,-4.41964 c 0.3729,-0.3729 0.374527,-0.62421 0.374527,-57.835383 l 0,-57.4608555 -0.394187,-0.3567344 C 94.805648,4.347488 93.789963,4.3394624 50.043931,4.3394624 l -44.7528497,0 L 4.9330997,4.781551 C 4.582374,5.2146788 4.5751181,6.3865888 4.5751181,62.59914 c 0,57.12582 0.00163,57.37713 0.3745269,57.75003 0.3724374,0.37244 0.6242115,0.37453 45.130491,0.37453 44.50628,0 44.758054,-0.002 45.130491,-0.37453 z"
     id="path3864"
     inkscape:connector-curvature="0" /><path
     style="opacity:0;fill:#2c3e50;fill-opacity:1"
     d="M 5.0538953,120.12024 C 4.7915964,119.74575 4.7623816,113.9684 4.7623816,62.472119 l 0,-57.231924 0.3941795,-0.3567346 C 5.5415391,4.5350533 6.5878586,4.5256061 49.979435,4.4787563 l 44.428697,-0.04797 0.49488,0.3892723 0.494879,0.3892723 0,57.3536318 c 0,55.325447 -0.01212,57.364587 -0.342456,57.663547 -0.316646,0.28656 -3.7103,0.30992 -45.026242,0.30992 l -44.6837839,0 -0.2915138,-0.41619 z M 77.424349,85.048071 c 0.678702,-0.350971 0.932568,-0.807681 0.932568,-1.67771 0,-0.860631 -0.430047,-1.514898 -1.163882,-1.770715 -0.746295,-0.260159 -53.459789,-0.28497 -54.142294,-0.02548 -1.571756,0.59758 -1.702316,2.722803 -0.217437,3.539388 0.267307,0.147 8.056814,0.207595 27.209316,0.211658 23.576138,0.005 26.901205,-0.02865 27.381729,-0.277138 l 0,0 z M 76.717128,72.851522 c 1.06515,-0.176063 1.639789,-0.858987 1.639789,-1.948793 0,-0.768548 -0.08093,-0.962229 -0.576159,-1.378941 l -0.576157,-0.484804 -27.153238,0 -27.153237,0 -0.547385,0.547386 c -1.022602,1.022601 -0.569096,2.776199 0.822055,3.178692 0.663664,0.192015 52.400349,0.275555 53.544332,0.08646 l 0,0 z m 0.707221,-12.70949 c 0.300816,-0.155558 0.633705,-0.444959 0.739754,-0.643111 0.251974,-0.470818 0.246761,-1.619565 -0.0095,-2.098435 -0.502377,-0.938718 0.441348,-0.908153 -28.040476,-0.908153 -18.463098,0 -26.745638,0.06141 -27.146858,0.201274 -1.540317,0.536958 -1.567622,2.924535 -0.0403,3.523823 0.297777,0.116841 10.200347,0.188016 27.209316,0.195565 23.500776,0.01043 26.807433,-0.0224 27.288097,-0.270963 l 0,0 z M 77.780758,47.39341 c 0.493643,-0.415373 0.576159,-0.611501 0.576159,-1.369441 0,-0.724792 -0.0949,-0.975556 -0.525222,-1.38783 l -0.525221,-0.503194 -27.204173,0 -27.204175,0 -0.547385,0.547386 c -0.429301,0.4293 -0.547386,0.715189 -0.547386,1.325249 0,0.610059 0.118085,0.895949 0.547386,1.325248 l 0.547385,0.547386 27.153237,0 27.153238,0 0.576157,-0.484804 0,0 z M 45.011853,32.440761 c 0.469745,-0.450144 0.57396,-0.699272 0.57396,-1.372065 0,-0.658903 -0.108639,-0.930695 -0.547386,-1.369441 l -0.547384,-0.547386 -10.796459,0 -10.796458,0 -0.547385,0.547386 c -0.422552,0.422553 -0.547386,0.718218 -0.547386,1.296476 0,0.852758 0.674335,1.821873 1.364052,1.960337 0.228223,0.04582 5.107447,0.07237 10.842718,0.059 l 10.427767,-0.0243 0.573961,-0.550009 z"
     id="path3866"
     inkscape:connector-curvature="0" /></svg>