<?xml version="1.0" encoding="UTF-8" standalone="no"?>
<svg
   xmlns:ns="http://ns.adobe.com/SaveForWeb/1.0/"
   xmlns:dc="http://purl.org/dc/elements/1.1/"
   xmlns:cc="http://creativecommons.org/ns#"
   xmlns:rdf="http://www.w3.org/1999/02/22-rdf-syntax-ns#"
   xmlns:svg="http://www.w3.org/2000/svg"
   xmlns="http://www.w3.org/2000/svg"
   xmlns:sodipodi="http://sodipodi.sourceforge.net/DTD/sodipodi-0.dtd"
   xmlns:inkscape="http://www.inkscape.org/namespaces/inkscape"
   version="1.1"
   x="0px"
   y="0px"
   viewBox="0 0 98.910218 94.2"
   enable-background="new 0 0 100 100"
   xml:space="preserve"
   id="svg3003"
   inkscape:version="0.48.4 r9939"
   width="100%"
   height="100%"
   sodipodi:docname="noun_375517_cc.svg"><defs
     id="defs3015" /><sodipodi:namedview
     pagecolor="#ffffff"
     bordercolor="#666666"
     borderopacity="1"
     objecttolerance="10"
     gridtolerance="10"
     guidetolerance="10"
     inkscape:pageopacity="0"
     inkscape:pageshadow="2"
     inkscape:window-width="1920"
     inkscape:window-height="1056"
     id="namedview3013"
     showgrid="false"
     inkscape:zoom="1.888"
     inkscape:cx="49.510218"
     inkscape:cy="34.6"
     inkscape:window-x="0"
     inkscape:window-y="24"
     inkscape:window-maximized="1"
     inkscape:current-layer="svg3003"
     fit-margin-top="0"
     fit-margin-left="0"
     fit-margin-right="0"
     fit-margin-bottom="0" /><metadata
     id="metadata3005"><ns:sfw><ns:slices /><ns:sliceSourceBounds
         width="1449.1"
         height="1429.6"
         y="-1445.1"
         x="0.4"
         bottomLeftOrigin="true" /></ns:sfw><rdf:RDF><cc:Work
         rdf:about=""><dc:format>image/svg+xml</dc:format><dc:type
           rdf:resource="http://purl.org/dc/dcmitype/StillImage" /></cc:Work></rdf:RDF></metadata><path
     d="m 49.510218,0 c -4.1,0 -8,0.8 -11.8,2.4 -15.7,6.4 -23.2,24.5 -16.7,40.2 4.8,11.6 16,19.1 28.5,19.1 4.1,0 8,-0.8 11.8,-2.4 15.7,-6.5 23.2,-24.5 16.7,-40.3 -4.8,-11.5 -16,-19 -28.5,-19 z m -24.5,39.2 c -1.9,-5.4 -1.9,-11.2 0,-16.7 h 6.6 c -0.5,2.7 -0.8,5.6 -0.8,8.3 0,2.6 0.3,5.4 1,8.3 h -6.8 z m 10.8,-8.4 c 0,-2.9 0.3,-5.7 0.9,-8.3 h 10.3 v 16.7 h -10.1 c -0.7,-2.8 -1.1,-5.7 -1.1,-8.4 z m 16.2,-24.5 c 3.5,1.4 6.7,5.7 8.8,11.2 h -8.8 V 6.3 z m -5,0 v 11.2 h -8.8 c 2.1,-5.5 5.3,-9.8 8.8,-11.2 z m 0,37.9 v 11.1 c -3.3,-1.5 -6.4,-5.9 -8.5,-11.1 h 8.5 z m 5,11.1 V 44.2 h 8.5 c -2.1,5.2 -5.2,9.6 -8.5,11.1 z m 0,-16.1 V 22.5 h 10.3 c 0.6,2.7 0.9,5.5 0.9,8.3 0,2.7 -0.4,5.5 -1.1,8.3 h -10.1 z m 15.4,-16.7 h 6.6 c 1.9,5.6 1.8,11.4 0,16.7 h -6.8 c 0.7,-2.9 1,-5.8 1,-8.3 0,-2.8 -0.3,-5.7 -0.8,-8.4 z m 4.3,-5 h -5.6 c -1.1,-3.6 -2.7,-6.9 -4.7,-9.6 4.2,2.2 7.8,5.5 10.3,9.6 z m -34.1,-9.6 c -1.9,2.7 -3.5,6 -4.7,9.6 h -5.5 c 2.4,-4.1 5.9,-7.4 10.2,-9.6 z m -10.3,36.3 h 5.9 c 1.3,3.7 3,7.2 5.2,10.1 -4.5,-2.2 -8.4,-5.7 -11.1,-10.1 z m 33.3,10 c 2.1,-2.9 3.9,-6.4 5.1,-10 h 5.9 c -2.5,4.2 -6.3,7.8 -11,10 z m -51.3999999,40 c 2.6999999,0 5.2999999,-1.2 7.0999999,-3.3 0.8,-1 1.4,-2.1 1.8,-3.4 h 22.6 c 1.1,3.9 4.6,6.7 8.8,6.7 4.2,0 7.7,-2.8 8.8,-6.7 h 22.6 c 1.1,3.9 4.6,6.7 8.8,6.7 5.1,0 9.2,-4.1 9.2,-9.2 0,-5.1 -4.1,-9.2 -9.2,-9.2 -4.2,0 -7.7,2.8 -8.8,6.7 h -22.6 c -0.9,-3.1 -3.3,-5.5 -6.3,-6.3 v -6.9 c 0,-1.4 -1.1,-2.5 -2.5,-2.5 -1.4,0 -2.5,1.1 -2.5,2.5 v 6.9 c -3.1,0.9 -5.5,3.3 -6.3,6.3 h -22.7 c -0.9,-3.3 -3.7,-5.9 -7,-6.5 -3.2999999,-0.6 -6.6999999,0.6 -8.8999999,3.2 -1.80000002,2.1 -2.50000002,4.9 -1.90000002,7.6 0.7,3.6 3.60000002,6.6 7.20000002,7.2 0.6,0.2 1.2,0.2 1.8,0.2 z M 89.810218,80.8 c 2.3,0 4.2,1.9 4.2,4.2 0,2.3 -1.9,4.2 -4.2,4.2 -2.2,0 -4,-1.7 -4.2,-3.9 0,-0.1 0,-0.2 0,-0.3 0,-0.1 0,-0.2 0,-0.3 0.2,-2.1 2,-3.9 4.2,-3.9 z m -40.3,0 c 2.3,0 4.2,1.9 4.2,4.2 0,2.3 -1.9,4.2 -4.2,4.2 -2.3,0 -4.2,-1.9 -4.2,-4.2 0,-2.3 1.9,-4.2 4.2,-4.2 z M 5.1102181,85.9 c -0.2,-1.3 0.1,-2.5 0.9,-3.5 0.8,-1 2,-1.5 3.2,-1.5 0.3,0 0.6,0 0.7999999,0.1 1.6,0.3 3,1.6 3.3,3.3 0.2,1.3 -0.1,2.5 -0.9,3.5 -1,1.2 -2.4999999,1.7 -4.0999999,1.4 -1.6,-0.4 -2.9,-1.7 -3.2,-3.3 z"
     id="path3007"
     inkscape:connector-curvature="0" /></svg>